<svg xmlns="http://www.w3.org/2000/svg" width="74" height="70" fill="none" viewBox="0 0 74 70"><path fill="#83b3d3" d="M70.0757 46.7H4.1103C1.80452 46.7 0 48.6 0 51v3.5c0 2.4 1.90477 4.3 4.1103 4.3h.90227v1.1c0 5.5 4.3108 10.1 9.62413 10.1h44.7121c5.3133 0 9.6241-4.5 9.6241-10.1v-1.1h.9023c2.3058 0 4.1103-1.9 4.1103-4.3V51c.2005-2.3-1.7043-4.3-3.9098-4.3m-3.9098 13.2c0 3.9-3.0076 7-6.7169 7H14.6367c-3.7093 0-6.71685-3.2-6.71685-7v-1.1H66.1659zm5.1128-5.4c0 .7-.6015 1.3-1.203 1.3H4.01005c-.70176 0-1.20301-.6-1.20301-1.3V51c0-.7.60151-1.3 1.20301-1.3H69.9754c.7018 0 1.203.6 1.203 1.3.1003 0 .1003 3.5.1003 3.5M15.6392 38.4l5.4136 4.1 5.3133-4.1 5.3133 4.1 5.3133-4.1 5.4136 4.1 5.3133-4.1 5.3133 4.1 5.4136-4.1 5.3133 4.1 6.2156-4.7-1.7043-2.5-4.5113 3.4-5.3133-4.1-5.4136 4.1-5.3133-4.1-5.3133 4.1-5.4136-4.1-5.3133 4.1-5.3133-4.1-5.3133 4.1-5.4136-4.1-5.3133 4.1-4.51132-3.4-1.70428 2.5 6.2156 4.7zM8.02011 31.5H68.9729c0-.6.1003-1.2.1003-1.9v-1.2C68.3714 12.7 54.3362 0 37.093 0 19.7495 0 5.71432 12.7 5.01257 28.5v1.2c0 .6-.00442 1.2.09583 1.8zM37.093 3c15.6392 0 28.4714 11.3 29.0729 25.5H8.02011C8.62161 14.4 21.4538 3 37.093 3"/><path fill="#83b3d3" d="M37.093 17.3c1.052 0 1.9048-.8954 1.9048-2s-.8528-2-1.9048-2-1.9048.8954-1.9048 2 .8528 2 1.9048 2M29.2734 12.2c1.052 0 1.9048-.8954 1.9048-2 0-1.10457-.8528-2-1.9048-2s-1.9048.89543-1.9048 2c0 1.1046.8528 2 1.9048 2M44.8123 12.2c1.052 0 1.9048-.8954 1.9048-2 0-1.10457-.8528-2-1.9048-2-1.0519 0-1.9047.89543-1.9047 2 0 1.1046.8528 2 1.9047 2"/></svg>