<svg xmlns="http://www.w3.org/2000/svg" width="75" height="72" fill="none" viewBox="0 0 75 72"><path fill="#83b3d3" d="M29.6185 65h16.0642V41.2H29.6185zm2.9116-20.9h10.1406v18H32.5301z"/><path fill="#83b3d3" d="M72.8916 39.3 75 37.2l-9.9398-9.9V0H51.1044v13.6L37.4498 0 0 37.2l2.10843 2.1 7.83133-7.8v37.6H5.92369V72H70.0803v-2.9h-5.1205V31.5zM62.0482 69.1H12.8514V28.5L37.4498 4.1l24.5984 24.4zm0-44.7-7.9317-7.9V2.9h7.9317z"/><path fill="#83b3d3" d="M29.8193 27.1c0 4.3 3.514 7.7 7.7309 7.7 4.3173 0 7.8313-3.5 7.8313-7.7 0-4.3-3.514-7.7-7.8313-7.7-4.2169 0-7.7309 3.4-7.7309 7.7m7.8313-5c2.7108 0 5.0201 2.2 5.0201 4.9s-2.2089 4.9-5.0201 4.9c-2.7108 0-5.0201-2.2-5.0201-4.9s2.2089-4.9 5.0201-4.9M19.9799 41.2h-3.012v3.9h3.012zM25.9036 41.2h-3.012v3.9h3.012zM19.9799 47.2h-3.012v3.9h3.012zM25.9036 47.2h-3.012v3.9h3.012zM52.008 41.2h-3.012v3.9h3.012zM57.9317 41.2h-3.012v3.9h3.012zM52.008 47.2h-3.012v3.9h3.012zM57.9317 47.2h-3.012v3.9h3.012z"/></svg>