<svg xmlns="http://www.w3.org/2000/svg" width="64" height="76" fill="none" viewBox="0 0 64 76"><path fill="#83b3d3" d="M61.1 22.4625H36.3c13.8-6.9049 14.9-11.3079 14.4-13.70962-1.2-4.00281-5.7-7.00491-10-5.40379-5.6 2.10147-7.1 10.40731-8.6 16.41151-2-6.1043-3.8-13.80969-8.2-17.71242C22.6.947407 20.8-.253434 18.1.0467764 14.1.447057 8.3 5.45056 10.6 11.0545c2.3 5.4038 9.7 8.8062 14.6 11.5081H2.9c-1.6 0-2.9 1.3009-2.9 2.902v11.3079c0 1.6011 1.3 2.902 2.9 2.902h.3V76H61V39.5745h.1c1.6 0 2.9-1.3009 2.9-2.9021V25.3645c0-1.6011-1.3-2.902-2.9-2.902M42.4 5.85084c2.1-.30021 5 1.30092 5.3 3.20225.4 2.80201-3.4 5.30371-5.1 6.40451-2.5 1.7012-4.9 2.6018-7.3 4.1028.9-3.7025 2.5-13.00907 7.1-13.70956M19.5 15.8579c-2.2-1.5011-6.5-4.4031-6.4-7.80551.1-3.60253 5.7-6.60463 8.8-3.90274C25.8 7.55203 27.6 15.2574 29 20.7613c-3.2-1.5011-6.3-2.802-9.5-4.9034m6 57.14H6.1V39.5745h19.4zm0-36.5256H3V25.4646h22.5zm10.2 0v36.5256h-7.2V25.5647h7.2zM58 72.9979H38.6V39.5745H58zm2.9-36.5256H38.6V25.4646h22.3z"/></svg>